<?xml version="1.0" encoding="UTF-8"?>
<svg xmlns="http://www.w3.org/2000/svg" xmlns:xlink="http://www.w3.org/1999/xlink" width="32px" height="32px" viewBox="0 0 32 32" version="1.1">
<g id="surface1">
<path style=" stroke:none;fill-rule:nonzero;fill:rgb(21.568627%,85.098039%,61.960784%);fill-opacity:1;" d="M 12.332031 22.148438 C 11.652344 22.824219 10.558594 22.824219 9.878906 22.148438 C 9.203125 21.472656 9.203125 20.371094 9.878906 19.695312 L 19.722656 9.855469 C 20.398438 9.175781 21.496094 9.175781 22.175781 9.855469 C 22.851562 10.527344 22.851562 11.628906 22.175781 12.304688 Z M 12.332031 22.148438 "/>
<path style=" stroke:none;fill-rule:nonzero;fill:rgb(21.568627%,85.098039%,61.960784%);fill-opacity:1;" d="M 17.566406 10.351562 L 23.957031 3.960938 C 24.292969 3.621094 24.84375 3.621094 25.183594 3.960938 L 28.066406 6.84375 C 28.402344 7.183594 28.402344 7.730469 28.066406 8.074219 L 21.675781 14.460938 C 21.464844 14.671875 21.175781 14.75 20.910156 14.699219 L 18.480469 17.128906 C 20.191406 18.464844 22.691406 18.351562 24.261719 16.777344 L 30.570312 10.46875 C 32.265625 8.773438 32.269531 5.996094 30.574219 4.300781 L 27.726562 1.453125 C 26.03125 -0.242188 23.253906 -0.238281 21.558594 1.457031 L 15.246094 7.765625 C 13.675781 9.335938 13.558594 11.835938 14.898438 13.542969 L 17.324219 11.121094 C 17.277344 10.847656 17.355469 10.558594 17.566406 10.351562 Z M 17.566406 10.351562 "/>
<path style=" stroke:none;fill-rule:nonzero;fill:rgb(21.568627%,85.098039%,61.960784%);fill-opacity:1;" d="M 14.339844 21.800781 L 7.949219 28.191406 C 7.609375 28.527344 7.058594 28.527344 6.722656 28.191406 L 3.835938 25.308594 C 3.496094 24.96875 3.496094 24.417969 3.835938 24.078125 L 10.226562 17.6875 C 10.433594 17.480469 10.722656 17.402344 10.996094 17.449219 L 13.570312 14.871094 C 11.863281 13.535156 9.363281 13.648438 7.792969 15.222656 L 1.480469 21.53125 C -0.214844 23.226562 -0.214844 26.003906 1.480469 27.699219 L 4.324219 30.546875 C 6.019531 32.242188 8.800781 32.238281 10.496094 30.542969 L 16.808594 24.234375 C 18.378906 22.664062 18.496094 20.164062 17.152344 18.457031 L 14.578125 21.03125 C 14.625 21.300781 14.546875 21.589844 14.339844 21.800781 Z M 14.339844 21.800781 "/>
</g>
</svg>
