<?xml version="1.0" encoding="UTF-8"?>
<svg xmlns="http://www.w3.org/2000/svg" xmlns:xlink="http://www.w3.org/1999/xlink" width="16px" height="16px" viewBox="0 0 16 16" version="1.1">
<g id="surface1">
<path style=" stroke:none;fill-rule:nonzero;fill:rgb(21.568627%,85.098039%,61.960784%);fill-opacity:1;" d="M 6.164062 11.074219 C 5.828125 11.410156 5.277344 11.410156 4.941406 11.074219 C 4.601562 10.734375 4.601562 10.1875 4.941406 9.847656 L 9.859375 4.925781 C 10.199219 4.589844 10.75 4.589844 11.085938 4.925781 C 11.425781 5.265625 11.425781 5.8125 11.085938 6.152344 Z M 6.164062 11.074219 "/>
<path style=" stroke:none;fill-rule:nonzero;fill:rgb(21.568627%,85.098039%,61.960784%);fill-opacity:1;" d="M 8.78125 5.175781 L 11.976562 1.980469 C 12.148438 1.8125 12.421875 1.8125 12.589844 1.980469 L 14.03125 3.421875 C 14.203125 3.589844 14.203125 3.867188 14.03125 4.035156 L 10.835938 7.230469 C 10.734375 7.335938 10.589844 7.375 10.453125 7.351562 L 9.242188 8.5625 C 10.09375 9.234375 11.34375 9.175781 12.128906 8.390625 L 15.285156 5.234375 C 16.132812 4.386719 16.136719 2.996094 15.289062 2.148438 L 13.863281 0.726562 C 13.015625 -0.121094 11.625 -0.121094 10.777344 0.726562 L 7.625 3.882812 C 6.839844 4.667969 6.78125 5.917969 7.449219 6.773438 L 8.664062 5.558594 C 8.636719 5.425781 8.679688 5.28125 8.78125 5.175781 Z M 8.78125 5.175781 "/>
<path style=" stroke:none;fill-rule:nonzero;fill:rgb(21.568627%,85.098039%,61.960784%);fill-opacity:1;" d="M 7.167969 10.898438 L 3.972656 14.09375 C 3.804688 14.265625 3.53125 14.265625 3.359375 14.09375 L 1.917969 12.652344 C 1.75 12.484375 1.75 12.207031 1.917969 12.039062 L 5.113281 8.84375 C 5.21875 8.738281 5.363281 8.699219 5.496094 8.726562 L 6.785156 7.4375 C 5.933594 6.765625 4.683594 6.824219 3.898438 7.609375 L 0.742188 10.765625 C -0.105469 11.613281 -0.109375 13.003906 0.738281 13.851562 L 2.164062 15.273438 C 3.011719 16.121094 4.398438 16.121094 5.246094 15.273438 L 8.402344 12.117188 C 9.1875 11.332031 9.246094 10.082031 8.578125 9.226562 L 7.289062 10.515625 C 7.3125 10.652344 7.273438 10.796875 7.167969 10.898438 Z M 7.167969 10.898438 "/>
</g>
</svg>
