<?xml version="1.0" encoding="UTF-8"?>
<svg xmlns="http://www.w3.org/2000/svg" xmlns:xlink="http://www.w3.org/1999/xlink" width="48px" height="48px" viewBox="0 0 48 48" version="1.1">
<g id="surface1">
<path style=" stroke:none;fill-rule:nonzero;fill:rgb(21.568627%,85.098039%,61.960784%);fill-opacity:1;" d="M 18.496094 33.222656 C 17.480469 34.234375 15.835938 34.234375 14.820312 33.222656 C 13.804688 32.207031 13.804688 30.558594 14.820312 29.542969 L 29.582031 14.78125 C 30.597656 13.765625 32.246094 13.765625 33.261719 14.78125 C 34.277344 15.792969 34.277344 17.441406 33.261719 18.457031 Z M 18.496094 33.222656 "/>
<path style=" stroke:none;fill-rule:nonzero;fill:rgb(21.568627%,85.098039%,61.960784%);fill-opacity:1;" d="M 26.347656 15.527344 L 35.933594 5.941406 C 36.441406 5.433594 37.265625 5.433594 37.773438 5.941406 L 42.097656 10.265625 C 42.605469 10.773438 42.605469 11.597656 42.097656 12.109375 L 32.511719 21.691406 C 32.199219 22.007812 31.765625 22.125 31.363281 22.050781 L 27.722656 25.691406 C 30.285156 27.699219 34.035156 27.527344 36.390625 25.167969 L 45.855469 15.703125 C 48.398438 13.160156 48.40625 8.992188 45.863281 6.449219 L 41.589844 2.179688 C 39.046875 -0.363281 34.878906 -0.359375 32.335938 2.183594 L 22.871094 11.648438 C 20.515625 14.003906 20.339844 17.753906 22.347656 20.316406 L 25.988281 16.679688 C 25.914062 16.273438 26.035156 15.839844 26.347656 15.527344 Z M 26.347656 15.527344 "/>
<path style=" stroke:none;fill-rule:nonzero;fill:rgb(21.568627%,85.098039%,61.960784%);fill-opacity:1;" d="M 21.507812 32.699219 L 11.921875 42.285156 C 11.414062 42.792969 10.589844 42.792969 10.082031 42.285156 L 5.753906 37.960938 C 5.246094 37.453125 5.246094 36.625 5.753906 36.117188 L 15.339844 26.53125 C 15.652344 26.21875 16.085938 26.101562 16.492188 26.175781 L 20.355469 22.308594 C 17.796875 20.300781 14.046875 20.472656 11.691406 22.832031 L 2.222656 32.296875 C -0.320312 34.839844 -0.324219 39.007812 2.21875 41.550781 L 6.488281 45.820312 C 9.03125 48.363281 13.199219 48.359375 15.742188 45.816406 L 25.210938 36.351562 C 27.566406 33.996094 27.742188 30.246094 25.730469 27.683594 L 21.867188 31.546875 C 21.9375 31.953125 21.820312 32.386719 21.507812 32.699219 Z M 21.507812 32.699219 "/>
</g>
</svg>
